<svg xmlns="http://www.w3.org/2000/svg" viewBox="0 0 15.66 18.68">
  <title>bucket</title>
  <path d="M15,7.88a3.6,3.6,0,0,0-1.06-2.55,3.17,3.17,0,0,0-.34-.28l-.19-.16a3.62,3.62,0,0,0-1.21-.51v-.3A4.25,4.25,0,0,0,7.78,0,4.27,4.27,0,0,0,3.34,4.13v.29A3.58,3.58,0,0,0,.72,7.88L0,15.08a3.6,3.6,0,0,0,3.6,3.6h8.47a3.6,3.6,0,0,0,3.59-3.6ZM7.78,2a2.29,2.29,0,0,1,2.37,2.13v.15H5.34V4.17A2.32,2.32,0,0,1,7.78,2Zm4.28,14.68H3.6A1.6,1.6,0,0,1,2,15.16l.71-7.08v-.2a1.6,1.6,0,0,1,1.6-1.6h7A1.6,1.6,0,0,1,13,7.88v.2l.7,7.08A1.6,1.6,0,0,1,12.06,16.68Z" transform="translate(0 0)"/>
</svg>
