<svg id="Слой_1" data-name="Слой 1" xmlns="http://www.w3.org/2000/svg" viewBox="0 0 18 18">
  <title>bucket-download</title>
  <path d="M18,6.35v8.3A3.35,3.35,0,0,1,14.65,18H3.35A3.35,3.35,0,0,1,0,14.65H0V6.35A3.35,3.35,0,0,1,3.35,3h0a1,1,0,0,1,0,2A1.34,1.34,0,0,0,2,6.33v8.32A1.34,1.34,0,0,0,3.33,16H14.65A1.34,1.34,0,0,0,16,14.67V6.35A1.34,1.34,0,0,0,14.67,5h0a1,1,0,1,1,0-2A3.35,3.35,0,0,1,18,6.35ZM8.29,12.71a1,1,0,0,0,1.41,0h0l3-3a1,1,0,0,0-1.42-1.42L10,9.59V1A1,1,0,0,0,8,1V9.59L6.71,8.29A1,1,0,0,0,5.29,9.71Z" transform="translate(0 0)"/>
</svg>
