<svg xmlns="http://www.w3.org/2000/svg" width="19.577" height="17.96" viewBox="0 0 19.577 17.96">
  <g id="Group_100" data-name="Group 100" transform="translate(-26.539 -29.038)">
    <g id="Group_100-2" data-name="Group 100" transform="translate(27.539 30.038)">
      <path id="Path_12" data-name="Path 12" d="M35.476,31.365a4.425,4.425,0,0,0-6.318,0l-.14.143a5.172,5.172,0,0,0,0,7.241l7.036,7.134a.383.383,0,0,0,.549,0l7.036-7.134a5.169,5.169,0,0,0,0-7.241l-.14-.143a4.423,4.423,0,0,0-6.318,0l-.712.722a.194.194,0,0,1-.276,0Z" transform="translate(-27.539 -30.038)" fill="none" stroke="#fff" stroke-linecap="round" stroke-linejoin="round" stroke-width="2"/>
    </g>
  </g>
</svg>
