<svg xmlns="http://www.w3.org/2000/svg" viewBox="0 0 17 17">
  <title>grid</title>
  <path d="M1.5,0A1.5,1.5,0,1,1,0,1.5,1.5,1.5,0,0,1,1.5,0Zm7,0A1.5,1.5,0,1,1,7,1.5,1.5,1.5,0,0,1,8.5,0Zm7,0A1.5,1.5,0,1,1,14,1.5,1.5,1.5,0,0,1,15.5,0ZM1.5,7A1.5,1.5,0,1,1,0,8.5,1.5,1.5,0,0,1,1.5,7Zm7,0A1.5,1.5,0,1,1,7,8.5,1.5,1.5,0,0,1,8.5,7Zm7,0A1.5,1.5,0,1,1,14,8.5,1.5,1.5,0,0,1,15.5,7Zm-14,7A1.5,1.5,0,1,1,0,15.5,1.5,1.5,0,0,1,1.5,14Zm7,0A1.5,1.5,0,1,1,7,15.5,1.5,1.5,0,0,1,8.5,14Zm7,0A1.5,1.5,0,1,1,14,15.5,1.5,1.5,0,0,1,15.5,14Z"/>
</svg>
