<svg xmlns="http://www.w3.org/2000/svg" viewBox="0 0 107.77 37.63">
  <polygon points="35.08 0 35.08 37.63 72.69 0.01 35.08 0" fill="#fef3f0"/>
  <g>
    <path d="M2.19,30.18v-13H0V14.1H2.19V12.24a5.91,5.91,0,0,1,.64-2.91A3.94,3.94,0,0,1,4.74,7.6,7.59,7.59,0,0,1,7.9,7h2.16l-1,3-.52,0H8.06a2.57,2.57,0,0,0-1.95.67,2.87,2.87,0,0,0-.62,2V14.1H9.08v3.07H5.5v13Z" fill="#1d1d1b"/>
    <path d="M17.73,30.61a8.08,8.08,0,0,1-4.21-1.13,8.52,8.52,0,0,1-3-3.05,8.5,8.5,0,0,1,0-8.47,8.52,8.52,0,0,1,3-3.07,8.4,8.4,0,0,1,8.45,0A8.41,8.41,0,0,1,25,18a8.64,8.64,0,0,1,0,8.49,8.16,8.16,0,0,1-3,3.05A8.4,8.4,0,0,1,17.73,30.61Zm0-3.16a4.89,4.89,0,0,0,2.55-.7,5.12,5.12,0,0,0,1.84-1.91,5.53,5.53,0,0,0,0-5.33A5.19,5.19,0,0,0,20.3,17.6a4.94,4.94,0,0,0-5.07,0,5.11,5.11,0,0,0-1.84,1.91,5.3,5.3,0,0,0-.68,2.67,5.24,5.24,0,0,0,.68,2.66,5,5,0,0,0,1.84,1.91A4.84,4.84,0,0,0,17.76,27.45Z" fill="#1d1d1b"/>
    <path d="M42.76,17a5.57,5.57,0,0,0-2.25-2.38,7,7,0,0,0-5.76-.39,7.37,7.37,0,0,0-2.11,1.18,5.16,5.16,0,0,0-.85.83l-.08-2.1-3.06,1V30.18H32v-9.1l0,.08a4.27,4.27,0,0,1,4.3-4.3,4,4,0,0,1,2.07.51,3.33,3.33,0,0,1,1.34,1.48,5.4,5.4,0,0,1,.46,2.34v9h3.36V20.67A8.16,8.16,0,0,0,42.76,17Z" fill="#1d1d1b"/>
    <path d="M47,30.18v-13H44.52V14.1h2.41V10.32l3.36-.77V14.1H54l-1,3.07h-2.7v13Z" fill="#1d1d1b"/>
    <path d="M69.49,17a5.55,5.55,0,0,0-2.23-2.39,6.79,6.79,0,0,0-3.38-.82,6.87,6.87,0,0,0-2.39.44,7.5,7.5,0,0,0-2.11,1.18,5.85,5.85,0,0,0-.63.58V7.54l-3.31,1V30.18h3.31v-9A4.3,4.3,0,0,1,59.32,19a4.15,4.15,0,0,1,1.56-1.55,4.39,4.39,0,0,1,2.18-.56,3.88,3.88,0,0,1,2.07.52,3.46,3.46,0,0,1,1.33,1.49,5.32,5.32,0,0,1,.47,2.31v9h3.34V20.64A8.15,8.15,0,0,0,69.49,17Z" fill="#1d1d1b"/>
    <path d="M84.28,14.1v9a4.3,4.3,0,0,1-2.14,3.74,4.24,4.24,0,0,1-2.17.57,4,4,0,0,1-2.07-.51,3.34,3.34,0,0,1-1.33-1.49,5.39,5.39,0,0,1-.47-2.34v-9H72.73v9.51a8.16,8.16,0,0,0,.79,3.71,5.55,5.55,0,0,0,2.24,2.38,7.15,7.15,0,0,0,5.77.39,7.37,7.37,0,0,0,2.11-1.18,5.59,5.59,0,0,0,.85-.83l.08,2.1h3.06V14.1Z" fill="#1d1d1b"/>
    <path d="M106.68,17.92a8.25,8.25,0,0,0-3-3.05,7.82,7.82,0,0,0-4-1.12A6.25,6.25,0,0,0,95.74,15a7.57,7.57,0,0,0-1.12,1.07V8L91.24,9V30.18h3.14L94.47,28a7.63,7.63,0,0,0,1.32,1.28,6.25,6.25,0,0,0,3.88,1.24,7.72,7.72,0,0,0,4.07-1.12,8.3,8.3,0,0,0,3-3.05,8.79,8.79,0,0,0,0-8.46Zm-2.8,6.89a4.79,4.79,0,0,1-1.76,1.84,4.7,4.7,0,0,1-2.47.67,4.92,4.92,0,0,1-2.54-.67,4.8,4.8,0,0,1-1.82-1.84,5.17,5.17,0,0,1-.67-2.63,5.25,5.25,0,0,1,.67-2.65,4.9,4.9,0,0,1,1.81-1.86A4.83,4.83,0,0,1,99.63,17a4.74,4.74,0,0,1,2.48.68,4.8,4.8,0,0,1,1.77,1.86,5.51,5.51,0,0,1,.65,2.66A5.37,5.37,0,0,1,103.88,24.81Z" fill="#1d1d1b"/>
  </g>
</svg>
