<svg xmlns="http://www.w3.org/2000/svg" viewBox="0 0 147.41 37.63">
  <title>logo</title>
  <g>
    <g style="isolation: isolate">
      <path d="M2.76,32.14H0V14.4H11.16v2.66H2.76v4.85h7.32v2.64H2.76Z" transform="translate(0 0)"/>
      <path d="M12.38,25.66a6.7,6.7,0,0,1,6.84-6.8,6.73,6.73,0,0,1,6.84,6.8,6.59,6.59,0,0,1-1.94,4.84,6.49,6.49,0,0,1-4.9,2,6.61,6.61,0,0,1-4.92-2A6.7,6.7,0,0,1,12.38,25.66Zm11,0a4.26,4.26,0,0,0-1.22-3.05,3.82,3.82,0,0,0-3-1.3,3.91,3.91,0,0,0-3,1.3,4.5,4.5,0,0,0,0,6.12,4,4,0,0,0,3,1.27,3.9,3.9,0,0,0,3-1.27A4.29,4.29,0,0,0,23.4,25.66Z" transform="translate(0 0)"/>
      <path d="M31.34,32.14H28.7V19.2h2.6V21A4,4,0,0,1,33,19.44a5.18,5.18,0,0,1,2.45-.58,5,5,0,0,1,3.6,1.4,5.26,5.26,0,0,1,1.49,4v7.88H37.82V25A4.05,4.05,0,0,0,37,22.28a2.85,2.85,0,0,0-2.25-1,3.14,3.14,0,0,0-2.44,1.05,3.85,3.85,0,0,0-.95,2.7Z" transform="translate(0 0)"/>
      <path d="M51.41,29.3l.91,2.07a5.79,5.79,0,0,1-3.58,1.08,3.93,3.93,0,0,1-3.16-1.27A5.55,5.55,0,0,1,44.5,27.5v-6H42.26V19.2h2.26V14.62h2.62V19.2H51.6v2.26H47.14v6.09c0,1.65.66,2.47,2,2.47A4.57,4.57,0,0,0,51.41,29.3Z" transform="translate(0 0)"/>
      <path d="M57.31,32.14H54.55V14.4H65.71v2.66h-8.4v4.85h7.32v2.64H57.31Z" transform="translate(0 0)"/>
      <path d="M77.81,21V19.2h2.54V32.14H77.81V30.36a5.54,5.54,0,0,1-4.42,2.09,6,6,0,0,1-4.63-2,6.91,6.91,0,0,1-1.83-4.9,6.65,6.65,0,0,1,1.83-4.8,6.15,6.15,0,0,1,4.63-1.89A5.5,5.5,0,0,1,77.81,21Zm-4.06,9a3.94,3.94,0,0,0,3-1.27,4.62,4.62,0,0,0,0-6.17,4,4,0,0,0-3-1.27,3.89,3.89,0,0,0-3,1.27,4.41,4.41,0,0,0-1.15,3.1,4.41,4.41,0,0,0,1.15,3.1A3.9,3.9,0,0,0,73.75,30Z" transform="translate(0 0)"/>
      <path d="M98.93,18.84a4.87,4.87,0,0,1,3.74,1.51,5.55,5.55,0,0,1,1.44,4.06v7.73h-2.64v-7.3a3.85,3.85,0,0,0-.79-2.6,2.69,2.69,0,0,0-2.16-.93,3,3,0,0,0-2.34,1,3.7,3.7,0,0,0-.9,2.61v7.23H92.64V24.89a3.93,3.93,0,0,0-.81-2.62,2.68,2.68,0,0,0-2.17-1,3,3,0,0,0-2.35,1A3.76,3.76,0,0,0,86.4,25v7.18H83.76V19.2h2.59v1.87A4.2,4.2,0,0,1,88,19.44a4.49,4.49,0,0,1,2.3-.6,4.9,4.9,0,0,1,2.4.65,3.75,3.75,0,0,1,1.59,1.73,4.72,4.72,0,0,1,1.93-1.73A5.93,5.93,0,0,1,98.93,18.84Z" transform="translate(0 0)"/>
      <path d="M108.74,17.5a1.79,1.79,0,0,1-1.29-.52,1.68,1.68,0,0,1-.53-1.28,1.62,1.62,0,0,1,.53-1.25,1.78,1.78,0,0,1,1.29-.51,1.69,1.69,0,0,1,1.25.51,1.67,1.67,0,0,1,.5,1.25A1.73,1.73,0,0,1,110,17,1.7,1.7,0,0,1,108.74,17.5ZM110,19.2V32.14h-2.64V19.2Z" transform="translate(0 0)"/>
      <path d="M116.06,13.94v18.2h-2.64V13.94Z" transform="translate(0 0)"/>
      <path d="M124.89,28.54l3.32-9.34h2.9l-5.35,14.11a8.31,8.31,0,0,1-2,3.3,4.08,4.08,0,0,1-2.81,1,3.92,3.92,0,0,1-2.2-.55l.38-2.28a4.18,4.18,0,0,0,1.61.41c1,0,1.89-.74,2.54-2.21l.41-1L118.05,19.2h3Z" transform="translate(0 0)"/>
    </g>
    <g>
      <path d="M139.34,5.51h-1.47v2.2h1.33a1.34,1.34,0,0,0,.94-.3,1.1,1.1,0,0,0,.32-.81,1.09,1.09,0,0,0-.3-.78A1.11,1.11,0,0,0,139.34,5.51Z" transform="translate(0 0)" fill="#e73626"/>
      <path d="M144.48,11.49a2.93,2.93,0,0,1-.9-2.32V4h1.63V9.06a1.7,1.7,0,0,0,.41,1.22,1.5,1.5,0,0,0,1.13.41,1.08,1.08,0,0,0,.19,0A7.83,7.83,0,0,0,147.41,8a8,8,0,1,0-1.23,4.24A3.18,3.18,0,0,1,144.48,11.49Zm-3.93.65-1.72-3h-1v3h-1.63V4h3.11a2.77,2.77,0,0,1,2.07.74,2.54,2.54,0,0,1,.71,1.83A2.62,2.62,0,0,1,141.71,8a2.34,2.34,0,0,1-1.23.93l2,3.17Z" transform="translate(0 0)" fill="#e73626"/>
    </g>
  </g>
</svg>
