<svg xmlns="http://www.w3.org/2000/svg" viewBox="0 0 26 26"><path d="M18.71 9.88c.09-.28 0-.49-.4-.49H17a.61.61 0 0 0-.59.37 11.32 11.32 0 0 1-1.63 2.72c-.31.31-.45.42-.62.42s-.21-.11-.21-.39V9.87c0-.34-.1-.49-.39-.49h-2.09a.32.32 0 0 0-.34.31c0 .32.48.4.53 1.3v2c0 .42-.08.5-.25.5-.45 0-1.54-1.66-2.2-3.56-.13-.37-.26-.51-.6-.51H7.27c-.38 0-.45.18-.45.37a10.74 10.74 0 0 0 2.1 4.42 5.18 5.18 0 0 0 4.08 2.4c.85 0 .95-.19.95-.51v-1.2c0-.39.08-.46.35-.46s.54.11 1.33.87 1.06 1.31 1.56 1.31h1.33c.38 0 .56-.19.46-.56a5.39 5.39 0 0 0-1.12-1.56c-.31-.37-.77-.76-.92-1s-.14-.36 0-.59a17.16 17.16 0 0 0 1.78-3.07" fill="#fff"/></svg>