<svg xmlns="http://www.w3.org/2000/svg" viewBox="0 0 40 40">
  <path d="M27,15.66a5.76,5.76,0,0,1-1.65.45,2.86,2.86,0,0,0,1.26-1.59,5.74,5.74,0,0,1-1.82.7,2.87,2.87,0,0,0-5,2,2.81,2.81,0,0,0,.07.65,8.13,8.13,0,0,1-5.91-3,2.8,2.8,0,0,0-.39,1.44,2.84,2.84,0,0,0,1.28,2.39,2.79,2.79,0,0,1-1.31-.36v0a2.86,2.86,0,0,0,2.31,2.81,2.73,2.73,0,0,1-.76.1,3.29,3.29,0,0,1-.54-.05,2.88,2.88,0,0,0,2.68,2,5.7,5.7,0,0,1-3.56,1.24c-.24,0-.46,0-.69,0a8.17,8.17,0,0,0,12.57-6.88v-.38A5.92,5.92,0,0,0,27,15.66Z" fill="#fff"/>
</svg>
