<svg xmlns="http://www.w3.org/2000/svg" viewBox="0 0 40 40">
  <path d="M26.4,16.56c.1-.32,0-.55-.44-.55H24.5a.65.65,0,0,0-.64.42,12.64,12.64,0,0,1-1.81,3c-.34.34-.5.46-.69.46s-.22-.12-.22-.43V16.54c0-.37-.12-.54-.43-.54H18.4a.36.36,0,0,0-.37.34c0,.36.53.44.59,1.44v2.16c0,.47-.09.56-.27.56-.5,0-1.71-1.84-2.44-3.93-.14-.41-.28-.57-.65-.57H13.78c-.43,0-.5.2-.5.41A11.94,11.94,0,0,0,15.6,21.3,5.71,5.71,0,0,0,20.08,24c.94,0,1.06-.22,1.06-.57V22.09c0-.42.08-.5.38-.5s.6.12,1.47,1S24.16,24,24.71,24h1.47c.42,0,.62-.21.51-.63a6.32,6.32,0,0,0-1.24-1.72c-.34-.4-.85-.84-1-1s-.16-.4,0-.66a19,19,0,0,0,2-3.38" fill="#fff"/>
</svg>
