<svg xmlns="http://www.w3.org/2000/svg" viewBox="0 0 14.87 12">
  <title>grid</title>
  <path d="M14.87,1a1,1,0,0,0-1-1H12a1,1,0,0,0,0,2h1.87A1,1,0,0,0,14.87,1Zm-11,0a1,1,0,0,0-1-1H1A1,1,0,0,0,1,2H2.87A1,1,0,0,0,3.87,1Zm5.5,0a1,1,0,0,0-1-1H6.5a1,1,0,0,0,0,2H8.37A1,1,0,0,0,9.37,1Zm5.5,10a1,1,0,0,0-1-1H12a1,1,0,0,0,0,2h1.87A1,1,0,0,0,14.87,11Zm-11,0a1,1,0,0,0-1-1H1a1,1,0,0,0,0,2H2.87A1,1,0,0,0,3.87,11Zm5.5,0a1,1,0,0,0-1-1H6.5a1,1,0,0,0,0,2H8.37A1,1,0,0,0,9.37,11Zm5.5-5a1,1,0,0,0-1-1H12a1,1,0,0,0,0,2h1.87A1,1,0,0,0,14.87,6Zm-11,0a1,1,0,0,0-1-1H1A1,1,0,0,0,1,7H2.87A1,1,0,0,0,3.87,6Zm5.5,0a1,1,0,0,0-1-1H6.5a1,1,0,0,0,0,2H8.37A1,1,0,0,0,9.37,6Z" transform="translate(0)" fill="#838b92"/>
</svg>
