<svg xmlns="http://www.w3.org/2000/svg" viewBox="0 0 14.87 12">
  <title>list</title>
  <path d="M1,2a1.05,1.05,0,0,1-.71-.29A1.05,1.05,0,0,1,0,1,1.05,1.05,0,0,1,.29.29,1,1,0,0,1,.62.08,1,1,0,0,1,1.71.29,1.05,1.05,0,0,1,2,1a1,1,0,0,1-.08.38,1.15,1.15,0,0,1-.21.33l-.15.12a.76.76,0,0,1-.18.09A.64.64,0,0,1,1.2,2ZM14.87,1a1,1,0,0,0-1-1H5A1,1,0,0,0,5,2h8.87A1,1,0,0,0,14.87,1ZM1.38,6.92a1,1,0,0,0,.33-.21,1.58,1.58,0,0,0,.12-.15.76.76,0,0,0,.09-.18A.64.64,0,0,0,2,6.2,1.5,1.5,0,0,0,2,6a1.05,1.05,0,0,0-.29-.71,1,1,0,0,0-1.42,0A1.05,1.05,0,0,0,0,6a1.5,1.5,0,0,0,0,.2.64.64,0,0,0,.06.18.76.76,0,0,0,.09.18l.12.15A1.05,1.05,0,0,0,1,7,.84.84,0,0,0,1.38,6.92ZM14.87,6a1,1,0,0,0-1-1H5A1,1,0,0,0,5,7h8.87A1,1,0,0,0,14.87,6ZM1.71,11.71A1,1,0,0,0,2,11a.84.84,0,0,0-.08-.38,1,1,0,0,0-.21-.33,1,1,0,0,0-1.09-.21,1.15,1.15,0,0,0-.33.21,1.15,1.15,0,0,0-.21.33A1,1,0,0,0,1,12,1,1,0,0,0,1.71,11.71ZM14.87,11a1,1,0,0,0-1-1H5a1,1,0,0,0,0,2h8.87A1,1,0,0,0,14.87,11Z" fill="#838b92"/>
</svg>
